<svg width="200" height="200" viewBox="0 0 84 96" fill="none" xmlns="http://www.w3.org/2000/svg">
<path d="M25.7159 62L12.9886 15.4545H18.7159L28.4432 53.3636H28.8977L38.8068 15.4545H45.1705L55.0795 53.3636H55.5341L65.2614 15.4545H70.9886L58.2614 62H52.4432L42.1705 24.9091H41.8068L31.5341 62H25.7159Z" fill="#FF9900"/>
<circle cx="42" cy="50" r="5.5" stroke="#FFFDFD" stroke-width="3"/>
<path d="M42 46L43.0103 48.7639H46.2798L43.6347 50.4721L44.645 53.2361L42 51.5279L39.355 53.2361L40.3653 50.4721L37.7202 48.7639H40.9897L42 46Z" fill="#FF9900"/>
<path d="M21 19C23.8333 27.3333 31.9 39 35.5 19C39.1 -1 77.5 21.5 55.5 27" stroke="white" stroke-width="2"/>
</svg>
